control3min_grf.mot
version=1
nRows=27
nColumns 19
inDegrees=yes
endheader
time	1_ground_force_vx	1_ground_force_vy	1_ground_force_vz	1_ground_force_px	1_ground_force_py	1_ground_force_pz	1_ground_torque_x	1_ground_torque_y	1_ground_torque_z	2_ground_force_vx	2_ground_force_vy	2_ground_force_vz	2_ground_force_px	2_ground_force_py	2_ground_force_pz	2_ground_torque_x	2_ground_torque_y	2_ground_torque_z
            0.005000	           -5.881417	         1185.788164	          -79.370058	           -0.213011	            0.006274	           -0.416430	           -0.017154	            3.458483	           -0.231492	           50.814372	         1156.736727	           83.037342	           -0.270399	            0.005405	           -0.669093	            0.047197	            1.074384	            0.077126
            0.005500	           -7.530401	         1187.047044	          -78.718560	           -0.213008	            0.006274	           -0.416457	           -0.017632	            2.779457	           -0.184319	           49.681088	         1159.128443	           82.483224	           -0.270372	            0.005406	           -0.669139	            0.049019	            1.143680	            0.081384
            0.006000	           -9.178866	         1189.205859	          -77.788071	           -0.212916	            0.006275	           -0.416511	           -0.019550	            2.532917	           -0.165683	           48.644658	         1160.601439	           81.550358	           -0.270303	            0.005405	           -0.669001	            0.057251	            1.365933	            0.095978
            0.006500	          -10.461885	         1189.745198	          -77.507439	           -0.212763	            0.006275	           -0.416528	           -0.025184	            2.864025	           -0.186580	           48.028845	         1162.441773	           81.275619	           -0.270278	            0.005405	           -0.668920	            0.058976	            1.427387	            0.099800
            0.007000	          -11.929367	         1190.646863	          -77.637489	           -0.212552	            0.006275	           -0.416593	           -0.035839	            3.576975	           -0.233241	           47.229696	         1163.175795	           81.184730	           -0.270190	            0.005405	           -0.668735	            0.058329	            1.436537	            0.100264
            0.007500	          -13.579861	         1190.827159	          -77.678487	           -0.212469	            0.006276	           -0.416691	           -0.047558	            4.170403	           -0.272038	           46.944688	         1164.278833	           81.376503	           -0.270078	            0.005405	           -0.668689	            0.050229	            1.245744	            0.087070
            0.008000	          -15.550573	         1191.005969	          -77.443531	           -0.212391	            0.006276	           -0.416726	           -0.053281	            4.080750	           -0.265345	           46.144278	         1165.380756	           81.427720	           -0.270078	            0.005405	           -0.668661	            0.040554	            1.024203	            0.071563
            0.008500	          -17.520457	         1191.003229	          -76.888368	           -0.212154	            0.006276	           -0.416721	           -0.050332	            3.421435	           -0.220880	           45.290280	         1168.324708	           81.297801	           -0.269961	            0.005407	           -0.668953	            0.035590	            0.918082	            0.063885
            0.009000	          -19.581262	         1192.440827	          -75.914094	           -0.212138	            0.006275	           -0.416659	           -0.044817	            2.729210	           -0.173749	           43.932234	         1168.135981	           81.156944	           -0.269958	            0.005406	           -0.668714	            0.039519	            1.050794	            0.073005
            0.009500	          -21.230045	         1191.356616	          -75.364364	           -0.212032	            0.006277	           -0.416961	           -0.045473	            2.551802	           -0.161425	           42.711236	         1168.870154	           80.596953	           -0.269831	            0.005406	           -0.668588	            0.045269	            1.238856	            0.085423
            0.010000	          -22.465986	         1191.353231	          -74.627598	           -0.211826	            0.006277	           -0.416914	           -0.058297	            3.091424	           -0.193650	           41.865028	         1169.605925	           80.036803	           -0.269715	            0.005406	           -0.668497	            0.047542	            1.328204	            0.090890
            0.010500	          -23.704233	         1191.533953	          -74.807177	           -0.211735	            0.006277	           -0.416927	           -0.076783	            3.859632	           -0.242316	           40.835396	         1169.235975	           79.425854	           -0.269646	            0.005406	           -0.668446	            0.046629	            1.335118	            0.090694
            0.011000	          -25.674537	         1190.090267	          -74.533340	           -0.211551	            0.006277	           -0.417080	           -0.092467	            4.286140	           -0.268434	           40.316788	         1170.154255	           79.570150	           -0.269540	            0.005406	           -0.668423	            0.038570	            1.119464	            0.076123
            0.011500	          -27.141593	         1189.910006	          -74.576324	           -0.211407	            0.006277	           -0.417091	           -0.092896	            4.072640	           -0.255248	           39.187780	         1171.438906	           79.669084	           -0.269342	            0.005407	           -0.668548	            0.030000	            0.896800	            0.060991
            0.012000	          -29.341032	         1189.907811	          -74.158163	           -0.211304	            0.006277	           -0.416974	           -0.083305	            3.378369	           -0.210549	           37.970528	         1171.248922	           80.091291	           -0.269188	            0.005408	           -0.668539	            0.029323	            0.904509	            0.061851
            0.012500	          -31.218295	         1187.921214	          -73.382439	           -0.211214	            0.006278	           -0.417176	           -0.072140	            2.745092	           -0.169575	           36.943075	         1170.325228	           79.900732	           -0.269156	            0.005407	           -0.668360	            0.030407	            0.963254	            0.065763
            0.013000	          -33.141538	         1186.655549	          -72.603525	           -0.211155	            0.006278	           -0.417195	           -0.073969	            2.648499	           -0.162044	           35.489893	         1170.505402	           79.526581	           -0.269132	            0.005408	           -0.668428	            0.037040	            1.221643	            0.083001
            0.013500	          -34.193759	         1185.390051	          -71.826772	           -0.211041	            0.006278	           -0.417278	           -0.094837	            3.287691	           -0.199212	           34.460303	         1170.135118	           79.009504	           -0.268984	            0.005408	           -0.668424	            0.037142	            1.261180	            0.085157
            0.014000	          -35.384334	         1183.044764	          -71.467016	           -0.210731	            0.006279	           -0.417513	           -0.119771	            4.004434	           -0.241905	           33.008499	         1169.946799	           78.727896	           -0.268862	            0.005408	           -0.668302	            0.036107	            1.279773	            0.086118
            0.014500	          -36.667821	         1181.783005	          -71.515092	           -0.210593	            0.006280	           -0.417541	           -0.133737	            4.310270	           -0.260834	           32.261436	         1169.208534	           78.444018	           -0.268778	            0.005408	           -0.668252	            0.030530	            1.106450	            0.074233
            0.015000	          -37.904396	         1179.618080	          -71.200301	           -0.210534	            0.006280	           -0.417600	           -0.128197	            3.989606	           -0.240808	           31.422909	         1167.915439	           78.721346	           -0.268696	            0.005408	           -0.668187	            0.024956	            0.927544	            0.062520
            0.015500	          -39.371141	         1178.356089	          -71.202070	           -0.210379	            0.006279	           -0.417519	           -0.108980	            3.261703	           -0.197088	           30.537457	         1166.622844	           78.810981	           -0.268605	            0.005409	           -0.668183	            0.023271	            0.889004	            0.060057
            0.016000	          -41.156898	         1176.730055	          -70.470896	           -0.210331	            0.006279	           -0.417466	           -0.094764	            2.709426	           -0.162260	           29.412539	         1166.801693	           79.140605	           -0.268492	            0.005409	           -0.668272	            0.024706	            0.980075	            0.066475
            0.016500	          -42.988188	         1174.022526	          -69.698392	           -0.210136	            0.006280	           -0.417577	           -0.100444	            2.743155	           -0.162853	           28.152664	         1165.326008	           78.572750	           -0.268322	            0.005410	           -0.668220	            0.028575	            1.182814	            0.079752
            0.017000	          -43.949116	         1172.397240	          -69.106836	           -0.210072	            0.006280	           -0.417643	           -0.128046	            3.415785	           -0.201343	           26.659198	         1163.665398	           78.004337	           -0.268249	            0.005410	           -0.668096	            0.029599	            1.291983	            0.086606
            0.017500	          -44.588467	         1168.968953	          -68.386235	           -0.209782	            0.006281	           -0.417748	           -0.156306	            4.097838	           -0.239729	           25.448330	         1161.635817	           77.809914	           -0.268197	            0.005410	           -0.668052	            0.027954	            1.276024	            0.085472
            0.018000	          -45.550256	         1166.444322	          -68.211243	           -0.209810	            0.006281	           -0.417971	           -0.163511	            4.187172	           -0.244857	           24.749488	         1160.529227	           77.618559	           -0.267959	            0.005410	           -0.667964	            0.022497	            1.054920	            0.070555
